<svg width="256" height="256" viewBox="0 0 256 256" fill="none" xmlns="http://www.w3.org/2000/svg">
    <path d="M128 4C59.5165 4 4 59.5165 4 128C4 196.483 59.5165 252 128 252C196.483 252 252 196.483 252 128C252 59.5165 196.483 4 128 4ZM128 28C183.266 28 228 72.7255 228 128C228 183.266 183.275 228 128 228C72.734 228 28 183.275 28 128C28 72.734 72.7255 28 128 28ZM198.102 93.1335L186.834 81.7745C184.5 79.422 180.701 79.4065 178.349 81.7405L107.673 151.848L77.777 121.71C75.4435 119.357 71.6445 119.342 69.292 121.675L57.9325 132.943C55.58 135.277 55.5645 139.076 57.8985 141.429L103.289 187.187C105.623 189.539 109.422 189.555 111.774 187.221L198.068 101.619C200.42 99.285 200.436 95.486 198.102 93.1335V93.1335Z"
          fill="#198754"/>
</svg>
